<svg width="620" height="754" viewBox="0 0 620 754" fill="none" xmlns="http://www.w3.org/2000/svg">
<ellipse cx="306" cy="482" rx="220" ry="268" fill="#9E2D2D"/>
<path d="M329.883 585.25L335.727 630.094H287.461L293.305 585.25C293.305 580.399 295.232 575.748 298.661 572.318C302.091 568.888 306.743 566.961 311.594 566.961C316.444 566.961 321.096 568.888 324.526 572.318C327.956 575.748 329.883 580.399 329.883 585.25ZM382.758 473.016C373.641 473.016 364.73 475.719 357.15 480.784C349.569 485.849 343.661 493.047 340.173 501.47C336.684 509.893 335.771 519.161 337.55 528.102C339.328 537.043 343.718 545.256 350.165 551.703C356.611 558.149 364.824 562.539 373.765 564.317C382.707 566.096 391.975 565.183 400.397 561.694C408.82 558.206 416.019 552.298 421.083 544.718C426.148 537.138 428.852 528.226 428.852 519.109C428.852 513.055 427.659 507.06 425.341 501.466C423.024 495.873 419.627 490.791 415.345 486.511C411.064 482.23 405.98 478.835 400.386 476.52C394.792 474.204 388.797 473.014 382.742 473.016H382.758ZM235.258 473.016C226.141 473.016 217.23 475.719 209.65 480.784C202.069 485.849 196.161 493.047 192.673 501.47C189.184 509.893 188.271 519.161 190.05 528.102C191.828 537.043 196.218 545.256 202.665 551.703C209.111 558.149 217.324 562.539 226.265 564.317C235.207 566.096 244.475 565.183 252.897 561.694C261.32 558.206 268.519 552.298 273.583 544.718C278.648 537.138 281.352 528.226 281.352 519.109C281.352 513.055 280.159 507.06 277.841 501.466C275.524 495.873 272.127 490.791 267.845 486.511C263.564 482.23 258.48 478.835 252.886 476.52C247.292 474.204 241.297 473.014 235.242 473.016H235.258ZM619.18 376.141C619.18 529.578 543.836 661.578 435.758 720.266C363.883 764.422 259.555 764.422 191.711 724.172C79.6484 667.594 0.820312 533.094 0.820312 376.156C0.820312 254.031 48.5391 145.484 122.523 76.6719C122.523 76.6719 56.7734 206.141 136.742 287.609C118.508 16.0937 401.242 189.172 321.117 0.109375C558.289 130.313 335.398 164.172 452.523 231.688C452.523 231.688 555.977 305.125 509.398 88.3594C576.508 157.094 619.164 260.703 619.164 376.156L619.18 376.141ZM512.086 422.812C508.258 320.484 426.336 235.953 324.18 228.953C319.398 228.625 314.57 228.469 309.867 228.469C256.249 228.456 204.822 249.742 166.896 287.644C128.971 325.546 107.654 376.96 107.633 430.578C107.847 473.164 121.224 514.641 145.93 549.328V588.391C146.056 602.74 151.818 616.465 161.973 626.605C172.128 636.745 185.861 642.488 200.211 642.594H209.992V668.547C210.104 682.85 215.869 696.529 226.03 706.596C236.191 716.664 249.923 722.302 264.227 722.281H360.758C375.03 722.294 388.724 716.642 398.834 706.568C408.943 696.493 414.642 682.819 414.68 668.547V642.594H423.086C437.433 642.483 451.159 636.72 461.285 626.556C471.411 616.391 477.123 602.645 477.18 588.297V544.547C501.55 508.76 513.781 466.091 512.07 422.828L512.086 422.812Z" fill="black"/>
<circle cx="381.5" cy="517.5" r="47.5" fill="#8CDD1E" stroke="black" stroke-width="14"/>
<circle cx="235.5" cy="517.5" r="47.5" fill="#8CDD1E" stroke="black" stroke-width="14"/>
</svg>
