<svg width="520" height="550" viewBox="0 0 520 550" fill="none" xmlns="http://www.w3.org/2000/svg">
<rect x="69.3334" y="165" width="381.333" height="210.833" fill="#8CDD1E"/>
<path d="M162.5 189.75C116.676 189.75 81 228.852 81 275C81 321.148 116.676 360.25 162.5 360.25C208.324 360.25 244 321.148 244 275C244 228.852 208.324 189.75 162.5 189.75ZM357.5 189.75C311.676 189.75 276 228.852 276 275C276 321.148 311.676 360.25 357.5 360.25C403.324 360.25 439 321.148 439 275C439 228.852 403.324 189.75 357.5 189.75ZM114 451.163L107.772 446.209C52.0959 401.917 16.5 333.963 16.5 257.812C16.5 124.72 125.374 16.5 260 16.5C394.626 16.5 503.5 124.72 503.5 257.812C503.5 333.963 467.904 401.917 412.228 446.209L406 451.163V498.438C406 518.676 390.692 533.5 373.75 533.5H357.75V507.031C357.75 484.516 340.355 464.75 316.875 464.75C293.395 464.75 276 484.516 276 507.031V533.5H244V507.031C244 484.516 226.605 464.75 203.125 464.75C179.645 464.75 162.25 484.516 162.25 507.031V533.5H146.25C129.308 533.5 114 518.676 114 498.438V451.163Z" fill="#9E2D2D" stroke="black" stroke-width="33"/>
</svg>
