<svg width="627" height="626" viewBox="0 0 627 626" fill="none" xmlns="http://www.w3.org/2000/svg">
<g clip-path="url(#clip0_1_6)">
<g filter="url(#filter0_d_1_6)">
<path d="M194.637 26.0215C208.918 20.0939 224.842 21.8336 237.44 29.8379L238.04 30.2246L238.08 30.252L238.12 30.2783L313.488 80.2373L388.857 30.2783L388.897 30.252L388.938 30.2246C401.849 21.7455 418.03 20.2186 432.242 25.9805C446.828 31.8935 456.704 44.6108 459.884 59.0234L460.03 59.7109L460.035 59.7383L460.041 59.7656L477.979 148.341L566.555 166.279L566.582 166.285L566.61 166.291C581.603 169.367 594.398 179.718 600.3 194.079C606.135 208.278 604.557 224.599 596.096 237.483L596.043 237.563L546.083 312.932L596.043 388.301L596.096 388.381C604.575 401.292 606.103 417.473 600.341 431.686C594.494 446.107 581.717 456.6 566.529 459.588L566.53 459.59L477.893 477.437L460.046 566.073L460.03 566.153C456.955 581.147 446.602 593.941 432.241 599.843C418.042 605.678 401.722 604.1 388.838 595.639L388.758 595.586L313.389 545.626L238.021 595.586L237.98 595.612L237.939 595.639C225.028 604.118 208.848 605.645 194.636 599.884C180.214 594.037 169.719 581.26 166.731 566.072L148.881 477.421L60.2266 459.485L60.1973 459.479L60.168 459.473C45.1748 456.397 32.3794 446.046 26.4775 431.685C20.6422 417.485 22.2203 401.166 30.6816 388.281L30.7119 388.236L30.7412 388.19L80.6895 312.925L30.7354 237.563L30.708 237.523L30.6816 237.483C22.2026 224.572 20.6756 208.391 26.4375 194.179C32.2841 179.757 45.0601 169.263 60.2471 166.275L148.898 148.424L166.836 59.7705L166.842 59.7402L166.848 59.7109C169.913 44.767 180.207 32.0076 194.495 26.0801C194.523 26.0684 194.551 26.0566 194.579 26.0449C194.598 26.037 194.618 26.0294 194.637 26.0215ZM312.989 207.032C254.516 207.032 207.089 254.458 207.089 312.932C207.089 371.405 254.516 418.832 312.989 418.832C371.463 418.832 418.889 371.405 418.889 312.932C418.888 254.458 371.463 207.032 312.989 207.032ZM312.989 210.032C369.815 210.032 415.888 256.106 415.889 312.932C415.889 369.758 369.815 415.832 312.989 415.832C256.163 415.832 210.089 369.758 210.089 312.932C210.089 256.105 256.163 210.032 312.989 210.032Z" fill="#9E2D2D"/>
<path d="M194.637 26.0215C208.918 20.0939 224.842 21.8336 237.44 29.8379L238.04 30.2246L238.08 30.252L238.12 30.2783L313.488 80.2373L388.857 30.2783L388.897 30.252L388.938 30.2246C401.849 21.7455 418.03 20.2186 432.242 25.9805C446.828 31.8935 456.704 44.6108 459.884 59.0234L460.03 59.7109L460.035 59.7383L460.041 59.7656L477.979 148.341L566.555 166.279L566.582 166.285L566.61 166.291C581.603 169.367 594.398 179.718 600.3 194.079C606.135 208.278 604.557 224.599 596.096 237.483L596.043 237.563L546.083 312.932L596.043 388.301L596.096 388.381C604.575 401.292 606.103 417.473 600.341 431.686C594.494 446.107 581.717 456.6 566.529 459.588L566.53 459.59L477.893 477.437L460.046 566.073L460.03 566.153C456.955 581.147 446.602 593.941 432.241 599.843C418.042 605.678 401.722 604.1 388.838 595.639L388.758 595.586L313.389 545.626L238.021 595.586L237.98 595.612L237.939 595.639C225.028 604.118 208.848 605.645 194.636 599.884C180.214 594.037 169.719 581.26 166.731 566.072L148.881 477.421L60.2266 459.485L60.1973 459.479L60.168 459.473C45.1748 456.397 32.3794 446.046 26.4775 431.685C20.6422 417.485 22.2203 401.166 30.6816 388.281L30.7119 388.236L30.7412 388.19L80.6895 312.925L30.7354 237.563L30.708 237.523L30.6816 237.483C22.2026 224.572 20.6756 208.391 26.4375 194.179C32.2841 179.757 45.0601 169.263 60.2471 166.275L148.898 148.424L166.836 59.7705L166.842 59.7402L166.848 59.7109C169.913 44.767 180.207 32.0076 194.495 26.0801C194.523 26.0684 194.551 26.0566 194.579 26.0449C194.598 26.037 194.618 26.0294 194.637 26.0215ZM312.989 207.032C254.516 207.032 207.089 254.458 207.089 312.932C207.089 371.405 254.516 418.832 312.989 418.832C371.463 418.832 418.889 371.405 418.889 312.932C418.888 254.458 371.463 207.032 312.989 207.032ZM312.989 210.032C369.815 210.032 415.888 256.106 415.889 312.932C415.889 369.758 369.815 415.832 312.989 415.832C256.163 415.832 210.089 369.758 210.089 312.932C210.089 256.105 256.163 210.032 312.989 210.032Z" stroke="black" stroke-width="45"/>
</g>
<circle cx="314" cy="313" r="102.5" fill="#8CDD1E"/>
<circle cx="314" cy="313" r="102.5" stroke="black" stroke-width="21"/>
<circle cx="314" cy="313" r="102.5" stroke="black" stroke-width="21"/>
</g>
<defs>
<filter id="filter0_d_1_6" x="-23.4006" y="-23.9027" width="673.579" height="673.624" filterUnits="userSpaceOnUse" color-interpolation-filters="sRGB">
<feFlood flood-opacity="0" result="BackgroundImageFix"/>
<feColorMatrix in="SourceAlpha" type="matrix" values="0 0 0 0 0 0 0 0 0 0 0 0 0 0 0 0 0 0 127 0" result="hardAlpha"/>
<feOffset/>
<feGaussianBlur stdDeviation="11.95"/>
<feComposite in2="hardAlpha" operator="out"/>
<feColorMatrix type="matrix" values="0 0 0 0 0 0 0 0 0 0 0 0 0 0 0 0 0 0 0.74 0"/>
<feBlend mode="normal" in2="BackgroundImageFix" result="effect1_dropShadow_1_6"/>
<feBlend mode="normal" in="SourceGraphic" in2="effect1_dropShadow_1_6" result="shape"/>
</filter>
<clipPath id="clip0_1_6">
<rect width="626" height="626" fill="white" transform="translate(0.5)"/>
</clipPath>
</defs>
</svg>
