<svg width="601" height="603" viewBox="0 0 601 603" fill="none" xmlns="http://www.w3.org/2000/svg">
<g clip-path="url(#clip0_1_17)">
<g filter="url(#filter0_d_1_17)">
<path d="M381.5 22.5C479.088 22.5 560.266 92.9992 576.85 185.844C579.63 201.379 572.327 214.403 562.441 221.875C552.958 229.042 540.276 232.024 528.006 229.404C522.104 228.145 515.98 227.5 509.5 227.5C460.026 227.5 420 267.526 420 317C420 332.392 423.835 346.739 430.614 359.34L430.653 359.412C436.514 370.401 437.212 383.373 432.998 394.474C428.613 406.024 418.202 416.651 402.564 418.352L402.565 418.354C395.489 419.166 388.522 419.5 381.5 419.5H292.3C289.843 419.5 287.444 420.476 285.61 422.31L258.777 449.143L258.745 449.174C257.412 450.496 255.949 452.983 255.486 458.172C255.012 463.502 255.781 470.11 257.536 477.174H257.535C259.185 483.685 260 490.31 260 497.1C260 542.626 223.026 579.6 177.5 579.6C135.326 579.6 100.493 547.872 95.5908 507.008C54.7277 502.105 23 467.273 23 425.1C23.0002 379.573 59.9737 342.6 105.5 342.6C112.573 342.6 119.25 343.586 125.232 345.017L125.33 345.04L125.427 345.064C132.444 346.808 139.052 347.563 144.396 347.079C149.617 346.607 152.15 345.13 153.49 343.79L180.29 316.99C181.784 315.496 182.709 313.627 183 311.656V221C183 111.374 271.874 22.5 381.5 22.5Z" fill="#9E2D2D"/>
<path d="M381.5 22.5C479.088 22.5 560.266 92.9992 576.85 185.844C579.63 201.379 572.327 214.403 562.441 221.875C552.958 229.042 540.276 232.024 528.006 229.404C522.104 228.145 515.98 227.5 509.5 227.5C460.026 227.5 420 267.526 420 317C420 332.392 423.835 346.739 430.614 359.34L430.653 359.412C436.514 370.401 437.212 383.373 432.998 394.474C428.613 406.024 418.202 416.651 402.564 418.352L402.565 418.354C395.489 419.166 388.522 419.5 381.5 419.5H292.3C289.843 419.5 287.444 420.476 285.61 422.31L258.777 449.143L258.745 449.174C257.412 450.496 255.949 452.983 255.486 458.172C255.012 463.502 255.781 470.11 257.536 477.174H257.535C259.185 483.685 260 490.31 260 497.1C260 542.626 223.026 579.6 177.5 579.6C135.326 579.6 100.493 547.872 95.5908 507.008C54.7277 502.105 23 467.273 23 425.1C23.0002 379.573 59.9737 342.6 105.5 342.6C112.573 342.6 119.25 343.586 125.232 345.017L125.33 345.04L125.427 345.064C132.444 346.808 139.052 347.563 144.396 347.079C149.617 346.607 152.15 345.13 153.49 343.79L180.29 316.99C181.784 315.496 182.709 313.627 183 311.656V221C183 111.374 271.874 22.5 381.5 22.5Z" stroke="black" stroke-width="45"/>
</g>
</g>
<defs>
<filter id="filter0_d_1_17" x="-23.4" y="-23.9" width="647.259" height="649.9" filterUnits="userSpaceOnUse" color-interpolation-filters="sRGB">
<feFlood flood-opacity="0" result="BackgroundImageFix"/>
<feColorMatrix in="SourceAlpha" type="matrix" values="0 0 0 0 0 0 0 0 0 0 0 0 0 0 0 0 0 0 127 0" result="hardAlpha"/>
<feOffset/>
<feGaussianBlur stdDeviation="11.95"/>
<feComposite in2="hardAlpha" operator="out"/>
<feColorMatrix type="matrix" values="0 0 0 0 0 0 0 0 0 0 0 0 0 0 0 0 0 0 0.74 0"/>
<feBlend mode="normal" in2="BackgroundImageFix" result="effect1_dropShadow_1_17"/>
<feBlend mode="normal" in="SourceGraphic" in2="effect1_dropShadow_1_17" result="shape"/>
</filter>
<clipPath id="clip0_1_17">
<rect width="600" height="603" fill="white" transform="translate(0.5)"/>
</clipPath>
</defs>
</svg>
