<svg width="540" height="634" viewBox="0 0 540 634" fill="none" xmlns="http://www.w3.org/2000/svg">
<g clip-path="url(#clip0_1_15)">
<g filter="url(#filter0_d_1_15)">
<path d="M270.474 22.5C369.018 22.5 452.974 94.9081 452.974 189C452.974 240.253 427.713 285.454 388.974 315.648V333C388.974 352.568 378.69 369.708 363.227 379.319L441.527 346.728C469.302 335.151 501.162 348.285 512.739 376.037C524.328 403.816 511.194 435.686 483.437 447.266L483.434 447.267L412.132 477L483.434 506.733L483.437 506.734C511.194 518.314 524.328 550.184 512.739 577.963C501.159 605.721 469.29 618.854 441.511 607.266L270.473 536.071L99.4355 607.265L99.4365 607.266C71.6576 618.854 39.788 605.721 28.208 577.963C16.6193 550.184 29.7529 518.314 57.5107 506.734L57.5137 506.733L128.814 477L57.5137 447.267L57.5107 447.266C29.7529 435.686 16.6193 403.816 28.208 376.037C39.7857 348.285 71.6449 335.151 99.4199 346.728L177.72 379.319C162.257 369.708 151.974 352.568 151.974 333V315.648C113.234 285.454 87.9736 240.252 87.9736 189C87.9736 94.9082 171.929 22.5001 270.474 22.5ZM347.102 386.031C343.049 386.991 338.821 387.5 334.474 387.5H206.474C202.125 387.5 197.897 386.991 193.845 386.031L270.473 417.928L347.102 386.031ZM206.474 195.5C201.2 195.5 196.974 199.726 196.974 205C196.974 210.274 201.2 214.5 206.474 214.5C211.747 214.5 215.974 210.274 215.974 205C215.974 199.726 211.747 195.5 206.474 195.5ZM334.474 195.5C329.2 195.5 324.974 199.726 324.974 205C324.974 210.274 329.2 214.5 334.474 214.5C339.747 214.5 343.974 210.274 343.974 205C343.974 199.726 339.747 195.5 334.474 195.5Z" fill="#9E2D2D"/>
<path d="M270.474 22.5C369.018 22.5 452.974 94.9081 452.974 189C452.974 240.253 427.713 285.454 388.974 315.648V333C388.974 352.568 378.69 369.708 363.227 379.319L441.527 346.728C469.302 335.151 501.162 348.285 512.739 376.037C524.328 403.816 511.194 435.686 483.437 447.266L483.434 447.267L412.132 477L483.434 506.733L483.437 506.734C511.194 518.314 524.328 550.184 512.739 577.963C501.159 605.721 469.29 618.854 441.511 607.266L270.473 536.071L99.4355 607.265L99.4365 607.266C71.6576 618.854 39.788 605.721 28.208 577.963C16.6193 550.184 29.7529 518.314 57.5107 506.734L57.5137 506.733L128.814 477L57.5137 447.267L57.5107 447.266C29.7529 435.686 16.6193 403.816 28.208 376.037C39.7857 348.285 71.6449 335.151 99.4199 346.728L177.72 379.319C162.257 369.708 151.974 352.568 151.974 333V315.648C113.234 285.454 87.9736 240.252 87.9736 189C87.9736 94.9082 171.929 22.5001 270.474 22.5ZM347.102 386.031C343.049 386.991 338.821 387.5 334.474 387.5H206.474C202.125 387.5 197.897 386.991 193.845 386.031L270.473 417.928L347.102 386.031ZM206.474 195.5C201.2 195.5 196.974 199.726 196.974 205C196.974 210.274 201.2 214.5 206.474 214.5C211.747 214.5 215.974 210.274 215.974 205C215.974 199.726 211.747 195.5 206.474 195.5ZM334.474 195.5C329.2 195.5 324.974 199.726 324.974 205C324.974 210.274 329.2 214.5 334.474 214.5C339.747 214.5 343.974 210.274 343.974 205C343.974 199.726 339.747 195.5 334.474 195.5Z" stroke="black" stroke-width="45"/>
</g>
<circle cx="206" cy="205" r="22.5" fill="#8CDD1E"/>
<circle cx="206" cy="205" r="22.5" stroke="black" stroke-width="21"/>
<circle cx="206" cy="205" r="22.5" stroke="black" stroke-width="21"/>
<circle cx="336.5" cy="205.5" r="32" fill="#8CDD1E"/>
<circle cx="336.5" cy="205.5" r="32" stroke="black" stroke-width="21"/>
<circle cx="336.5" cy="205.5" r="32" stroke="black" stroke-width="21"/>
<circle cx="203.5" cy="205.5" r="32" fill="#8CDD1E"/>
<circle cx="203.5" cy="205.5" r="32" stroke="black" stroke-width="21"/>
<circle cx="203.5" cy="205.5" r="32" stroke="black" stroke-width="21"/>
<path d="M254.5 435.5L154.5 394L187 360L198.5 364.5L331 368L352.5 360L402 387.5L288.5 434.5L254.5 435.5Z" fill="black"/>
</g>
<defs>
<filter id="filter0_d_1_15" x="-22.4128" y="-23.9" width="585.773" height="681.787" filterUnits="userSpaceOnUse" color-interpolation-filters="sRGB">
<feFlood flood-opacity="0" result="BackgroundImageFix"/>
<feColorMatrix in="SourceAlpha" type="matrix" values="0 0 0 0 0 0 0 0 0 0 0 0 0 0 0 0 0 0 127 0" result="hardAlpha"/>
<feOffset/>
<feGaussianBlur stdDeviation="11.95"/>
<feComposite in2="hardAlpha" operator="out"/>
<feColorMatrix type="matrix" values="0 0 0 0 0 0 0 0 0 0 0 0 0 0 0 0 0 0 0.74 0"/>
<feBlend mode="normal" in2="BackgroundImageFix" result="effect1_dropShadow_1_15"/>
<feBlend mode="normal" in="SourceGraphic" in2="effect1_dropShadow_1_15" result="shape"/>
</filter>
<clipPath id="clip0_1_15">
<rect width="539" height="634" fill="white" transform="translate(0.5)"/>
</clipPath>
</defs>
</svg>
