<svg width="571" height="600" viewBox="0 0 571 600" fill="none" xmlns="http://www.w3.org/2000/svg">
<g clip-path="url(#clip0_1_21)">
<g filter="url(#filter0_d_1_21)">
<path d="M301 459V146.5L437 208C438.6 336.8 347 429 301 459Z" fill="#8CDD1E" stroke="black"/>
<path d="M285.4 22.5C293.103 22.5 300.739 24.1423 307.734 27.25L495.96 107.075H495.961C525.551 119.584 548.138 149.01 548 185.086V185.113C547.482 287.964 505.343 480.52 321.62 568.491L321.621 568.492C298.778 579.435 272.232 579.436 249.388 568.495C65.5524 480.522 23.5193 287.955 23.001 185.113V185.086C22.8654 149.574 44.7492 120.506 73.6582 107.675L75.04 107.075L263.167 27.249C270.095 24.1698 277.63 22.5 285.4 22.5ZM307.9 451.164C402.278 388.02 434.152 278.243 438.407 201.191L307.9 145.874V451.164Z" fill="#9E2D2D" stroke="black" stroke-width="45"/>
</g>
</g>
<defs>
<filter id="filter0_d_1_21" x="-23.3996" y="-23.9" width="617.8" height="647" filterUnits="userSpaceOnUse" color-interpolation-filters="sRGB">
<feFlood flood-opacity="0" result="BackgroundImageFix"/>
<feColorMatrix in="SourceAlpha" type="matrix" values="0 0 0 0 0 0 0 0 0 0 0 0 0 0 0 0 0 0 127 0" result="hardAlpha"/>
<feOffset/>
<feGaussianBlur stdDeviation="11.95"/>
<feComposite in2="hardAlpha" operator="out"/>
<feColorMatrix type="matrix" values="0 0 0 0 0 0 0 0 0 0 0 0 0 0 0 0 0 0 0.74 0"/>
<feBlend mode="normal" in2="BackgroundImageFix" result="effect1_dropShadow_1_21"/>
<feBlend mode="normal" in="SourceGraphic" in2="effect1_dropShadow_1_21" result="shape"/>
</filter>
<clipPath id="clip0_1_21">
<rect width="570" height="600" fill="white" transform="translate(0.5)"/>
</clipPath>
</defs>
</svg>
