<svg width="635" height="634" viewBox="0 0 635 634" fill="none" xmlns="http://www.w3.org/2000/svg">
<g clip-path="url(#clip0_1_13)">
<g filter="url(#filter0_d_1_13)">
<path d="M315.5 150.5C406.563 150.5 480.5 223.861 480.5 314.5C480.5 405.139 406.563 478.5 315.5 478.5C224.437 478.5 150.5 405.139 150.5 314.5C150.5 223.861 224.437 150.5 315.5 150.5Z" fill="#8CDD1E"/>
<path d="M315.5 150.5C406.563 150.5 480.5 223.861 480.5 314.5C480.5 405.139 406.563 478.5 315.5 478.5C224.437 478.5 150.5 405.139 150.5 314.5C150.5 223.861 224.437 150.5 315.5 150.5Z" stroke="black" stroke-width="21"/>
<path d="M315.5 150.5C406.563 150.5 480.5 223.861 480.5 314.5C480.5 405.139 406.563 478.5 315.5 478.5C224.437 478.5 150.5 405.139 150.5 314.5C150.5 223.861 224.437 150.5 315.5 150.5Z" stroke="black" stroke-width="21"/>
<path d="M317.5 22.5C347.485 22.5 371.77 46.6459 371.997 76.5771C464.392 97.409 537.09 170.107 557.922 262.502C587.854 262.728 612 287.014 612 317C612 346.986 587.854 371.271 557.922 371.497C537.09 463.892 464.392 536.59 371.997 557.422C371.771 587.354 347.486 611.5 317.5 611.5C287.514 611.5 263.228 587.354 263.002 557.422C170.607 536.59 97.909 463.892 77.0771 371.497C47.1459 371.27 23 346.985 23 317C23 287.015 47.1459 262.729 77.0771 262.502C97.9093 170.107 170.607 97.4093 263.002 76.5771C263.229 46.6459 287.515 22.5 317.5 22.5ZM369.422 189.624C362.402 211.606 341.827 227.5 317.5 227.5C293.172 227.5 272.597 211.606 265.577 189.624C231.395 203.563 204.063 230.895 190.124 265.077C212.106 272.097 228 292.672 228 317C228 341.327 212.106 361.902 190.124 368.922C204.063 403.104 231.395 430.435 265.577 444.375C272.597 422.393 293.173 406.5 317.5 406.5C341.827 406.5 362.402 422.393 369.422 444.375C403.604 430.436 430.936 403.104 444.875 368.922C422.893 361.902 407 341.327 407 317C407 292.673 422.893 272.097 444.875 265.077C430.935 230.895 403.604 203.563 369.422 189.624ZM317.5 246.5C356.426 246.5 388 278.074 388 317C388 355.926 356.426 387.5 317.5 387.5C278.574 387.5 247 355.926 247 317C247 278.074 278.574 246.5 317.5 246.5Z" fill="#9E2D2D" stroke="black" stroke-width="45"/>
</g>
</g>
<defs>
<filter id="filter0_d_1_13" x="-23.4" y="-23.9" width="681.8" height="681.8" filterUnits="userSpaceOnUse" color-interpolation-filters="sRGB">
<feFlood flood-opacity="0" result="BackgroundImageFix"/>
<feColorMatrix in="SourceAlpha" type="matrix" values="0 0 0 0 0 0 0 0 0 0 0 0 0 0 0 0 0 0 127 0" result="hardAlpha"/>
<feOffset/>
<feGaussianBlur stdDeviation="11.95"/>
<feComposite in2="hardAlpha" operator="out"/>
<feColorMatrix type="matrix" values="0 0 0 0 0 0 0 0 0 0 0 0 0 0 0 0 0 0 0.74 0"/>
<feBlend mode="normal" in2="BackgroundImageFix" result="effect1_dropShadow_1_13"/>
<feBlend mode="normal" in="SourceGraphic" in2="effect1_dropShadow_1_13" result="shape"/>
</filter>
<clipPath id="clip0_1_13">
<rect width="634" height="634" fill="white" transform="translate(0.5)"/>
</clipPath>
</defs>
</svg>
