<svg width="603" height="588" viewBox="0 0 603 588" fill="none" xmlns="http://www.w3.org/2000/svg">
<g clip-path="url(#clip0_1_8)">
<path d="M324 232C336.426 232 346.5 221.926 346.5 209.5C346.5 197.074 336.426 187 324 187C311.574 187 301.5 197.074 301.5 209.5C301.5 221.926 311.574 232 324 232Z" fill="black"/>
<g filter="url(#filter0_d_1_8)">
<path d="M525.5 456.238C555.626 456.238 580 480.612 580 510.738C580 540.864 555.626 565.238 525.5 565.238H77.5C47.3737 565.238 23.0002 540.864 23 510.738C23 480.612 47.3736 456.238 77.5 456.238H525.5ZM418.661 28.1123C448.546 12.0764 482.42 39.6143 474.08 71.7842L474.074 71.8047L474.069 71.8252L436.869 214.225L436.851 214.297L436.831 214.368C436.292 216.376 436 218.598 436 221.138C436 224.376 436.58 227.581 437.709 230.565L437.941 231.16L437.992 231.285L514.393 422.386L526.727 453.238H283.784L283.817 453.338H87V426.288L88.6934 422.174L174.394 213.974C193.386 167.833 227.803 129.841 271.816 106.382L418.661 28.1123ZM262.14 345.169L258.581 355.819L247.931 359.378L225.905 366.737L247.931 374.098L258.591 377.66L262.146 388.322L269.483 410.336L276.854 388.223L280.409 377.56L291.069 373.998L313.094 366.638L291.069 359.278L280.419 355.719L276.86 345.068L269.517 323.092L262.14 345.169Z" fill="#9E2D2D"/>
<path d="M525.5 456.238C555.626 456.238 580 480.612 580 510.738C580 540.864 555.626 565.238 525.5 565.238H77.5C47.3737 565.238 23.0002 540.864 23 510.738C23 480.612 47.3736 456.238 77.5 456.238H525.5ZM418.661 28.1123C448.546 12.0764 482.42 39.6143 474.08 71.7842L474.074 71.8047L474.069 71.8252L436.869 214.225L436.851 214.297L436.831 214.368C436.292 216.376 436 218.598 436 221.138C436 224.376 436.58 227.581 437.709 230.565L437.941 231.16L437.992 231.285L514.393 422.386L526.727 453.238H283.784L283.817 453.338H87V426.288L88.6934 422.174L174.394 213.974C193.386 167.833 227.803 129.841 271.816 106.382L418.661 28.1123ZM262.14 345.169L258.581 355.819L247.931 359.378L225.905 366.737L247.931 374.098L258.591 377.66L262.146 388.322L269.483 410.336L276.854 388.223L280.409 377.56L291.069 373.998L313.094 366.638L291.069 359.278L280.419 355.719L276.86 345.068L269.517 323.092L262.14 345.169Z" stroke="black" stroke-width="45"/>
</g>
<path d="M350 152L362.521 192.843H337.479L350 152Z" fill="black"/>
<path d="M390 193.446L349.157 205.967L349.157 180.925L390 193.446Z" fill="black"/>
<path d="M310 193.446L350.843 180.925L350.843 205.967L310 193.446Z" fill="black"/>
<path d="M350 233.446L337.479 192.602L362.521 192.602L350 233.446Z" fill="black"/>
<path d="M270 324L282.521 364.843H257.479L270 324Z" fill="#8CDD1E"/>
<path d="M310 365.446L269.157 377.967L269.157 352.925L310 365.446Z" fill="#8CDD1E"/>
<path d="M230 365.446L270.843 352.925L270.843 377.967L230 365.446Z" fill="#8CDD1E"/>
<path d="M270 405.446L257.479 364.602L282.521 364.602L270 405.446Z" fill="#8CDD1E"/>
<path d="M350.222 186L352.483 193.374H347.961L350.222 186Z" fill="#8CDD1E"/>
<path d="M357.444 193.483L350.07 195.744L350.07 191.222L357.444 193.483Z" fill="#8CDD1E"/>
<path d="M343 193.483L350.374 191.222L350.374 195.744L343 193.483Z" fill="#8CDD1E"/>
<path d="M350.222 200.705L347.961 193.331L352.482 193.331L350.222 200.705Z" fill="#8CDD1E"/>
</g>
<defs>
<filter id="filter0_d_1_8" x="-23.4" y="-23.1035" width="649.8" height="634.741" filterUnits="userSpaceOnUse" color-interpolation-filters="sRGB">
<feFlood flood-opacity="0" result="BackgroundImageFix"/>
<feColorMatrix in="SourceAlpha" type="matrix" values="0 0 0 0 0 0 0 0 0 0 0 0 0 0 0 0 0 0 127 0" result="hardAlpha"/>
<feOffset/>
<feGaussianBlur stdDeviation="11.95"/>
<feComposite in2="hardAlpha" operator="out"/>
<feColorMatrix type="matrix" values="0 0 0 0 0 0 0 0 0 0 0 0 0 0 0 0 0 0 0.74 0"/>
<feBlend mode="normal" in2="BackgroundImageFix" result="effect1_dropShadow_1_8"/>
<feBlend mode="normal" in="SourceGraphic" in2="effect1_dropShadow_1_8" result="shape"/>
</filter>
<clipPath id="clip0_1_8">
<rect width="602" height="588" fill="white" transform="translate(0.5)"/>
</clipPath>
</defs>
</svg>
