<svg width="668" height="442" viewBox="0 0 668 442" fill="none" xmlns="http://www.w3.org/2000/svg">
<g clip-path="url(#clip0_1_4)">
<g filter="url(#filter0_d_1_4)">
<path d="M381.569 22.5C450.87 22.5001 508.015 53.173 549.591 87.6426L551.56 89.2871L551.57 89.2959L551.581 89.3057C592.508 123.848 621.82 164.913 637.347 194.6L638.075 196.005L638.091 196.034L638.105 196.063C646.09 211.692 646.09 230.207 638.105 245.836L638.091 245.866L638.075 245.896C622.747 275.682 593.158 317.505 551.581 352.595L551.58 352.594C509.814 387.859 452.054 419.4 381.569 419.4C311.064 419.4 253.306 387.741 211.578 352.612L211.56 352.597L211.54 352.58C199.57 342.457 188.604 331.8 178.698 321.067L105.015 364.028L105.016 364.029C83.7298 376.46 56.6804 373.061 39.1367 355.688C21.5439 338.266 18.0527 311.375 30.0664 290.055L30.1064 289.983L30.1465 289.913L69.6426 220.987L30.2363 152.068L30.2334 152.063C17.9522 130.571 21.7367 103.642 39.2363 86.3125C56.5251 69.1915 82.8796 65.6819 104.044 77.3633L105.048 77.9316L105.075 77.9473L105.102 77.9629L178.798 120.932C183.482 115.857 188.403 110.799 193.556 105.807L192.824 105.075L211.578 89.2871C253.311 54.1546 311.168 22.5 381.569 22.5ZM461.569 211.5C456.296 211.5 452.069 215.726 452.069 221C452.069 226.274 456.296 230.5 461.569 230.5C466.843 230.5 471.069 226.273 471.069 221C471.069 215.727 466.843 211.5 461.569 211.5Z" fill="#9E2D2D"/>
<path d="M381.569 22.5C450.87 22.5001 508.015 53.173 549.591 87.6426L551.56 89.2871L551.57 89.2959L551.581 89.3057C592.508 123.848 621.82 164.913 637.347 194.6L638.075 196.005L638.091 196.034L638.105 196.063C646.09 211.692 646.09 230.207 638.105 245.836L638.091 245.866L638.075 245.896C622.747 275.682 593.158 317.505 551.581 352.595L551.58 352.594C509.814 387.859 452.054 419.4 381.569 419.4C311.064 419.4 253.306 387.741 211.578 352.612L211.56 352.597L211.54 352.58C199.57 342.457 188.604 331.8 178.698 321.067L105.015 364.028L105.016 364.029C83.7298 376.46 56.6804 373.061 39.1367 355.688C21.5439 338.266 18.0527 311.375 30.0664 290.055L30.1064 289.983L30.1465 289.913L69.6426 220.987L30.2363 152.068L30.2334 152.063C17.9522 130.571 21.7367 103.642 39.2363 86.3125C56.5251 69.1915 82.8796 65.6819 104.044 77.3633L105.048 77.9316L105.075 77.9473L105.102 77.9629L178.798 120.932C183.482 115.857 188.403 110.799 193.556 105.807L192.824 105.075L211.578 89.2871C253.311 54.1546 311.168 22.5 381.569 22.5ZM461.569 211.5C456.296 211.5 452.069 215.726 452.069 221C452.069 226.274 456.296 230.5 461.569 230.5C466.843 230.5 471.069 226.273 471.069 221C471.069 215.727 466.843 211.5 461.569 211.5Z" stroke="black" stroke-width="45"/>
</g>
<circle cx="459.5" cy="221.5" r="33" fill="#8CDD1E"/>
<circle cx="459.5" cy="221.5" r="33" stroke="black" stroke-width="21"/>
<circle cx="459.5" cy="221.5" r="33" stroke="black" stroke-width="21"/>
</g>
<defs>
<filter id="filter0_d_1_4" x="-23.3976" y="-23.9" width="713.891" height="489.7" filterUnits="userSpaceOnUse" color-interpolation-filters="sRGB">
<feFlood flood-opacity="0" result="BackgroundImageFix"/>
<feColorMatrix in="SourceAlpha" type="matrix" values="0 0 0 0 0 0 0 0 0 0 0 0 0 0 0 0 0 0 127 0" result="hardAlpha"/>
<feOffset/>
<feGaussianBlur stdDeviation="11.95"/>
<feComposite in2="hardAlpha" operator="out"/>
<feColorMatrix type="matrix" values="0 0 0 0 0 0 0 0 0 0 0 0 0 0 0 0 0 0 0.74 0"/>
<feBlend mode="normal" in2="BackgroundImageFix" result="effect1_dropShadow_1_4"/>
<feBlend mode="normal" in="SourceGraphic" in2="effect1_dropShadow_1_4" result="shape"/>
</filter>
<clipPath id="clip0_1_4">
<rect width="667" height="442" fill="white" transform="translate(0.5)"/>
</clipPath>
</defs>
</svg>
