<svg width="663" height="532" viewBox="0 0 663 532" fill="none" xmlns="http://www.w3.org/2000/svg">
<rect x="332" y="151" width="196" height="230" fill="#8CDD1E"/>
<path d="M284.434 20.5645C291.33 16.1549 299.806 16.5622 306.026 21.4072L306.077 21.4463L395.494 90.5742L399.649 93.7861L404.886 94.1807C463.725 98.6053 514.057 124.089 553.389 154.479C596.414 187.876 627.244 227.968 642.742 255.517L642.775 255.575C646.409 261.976 646.409 270.024 642.775 276.425L642.742 276.483C627.231 304.055 596.504 344.145 553.376 377.53L553.37 377.535C514.177 407.902 463.735 433.394 404.886 437.819L399.644 438.214L395.486 441.432L306.204 510.544C299.791 515.493 291.304 515.794 284.607 511.475C277.942 507.175 274.164 498.634 275.846 489.957L275.847 489.95L287.01 432.225L289.575 418.955L277.386 413.118C256.978 403.347 238.419 391.534 221.823 378.866L220.224 377.638C203.499 364.66 188.55 350.49 175.506 336.457L165.834 326.052L153.662 333.379L46.5664 397.848C39.0427 402.346 29.7405 401.166 23.5205 394.809C17.1094 388.256 15.6603 377.921 20.2207 369.68L72.9277 274.54L77.6309 266.05L72.9199 257.564L20.1416 162.505C15.589 154.136 17.0688 143.787 23.4053 137.311C29.641 130.937 39.0336 129.8 46.3984 134.239L46.4072 134.245L153.547 198.74L165.822 206.129L175.489 195.555C188.297 181.545 203.333 167.495 220.138 154.458L220.137 154.457C237.13 141.334 256.217 129.082 277.271 119.001L289.46 113.164L286.895 99.8945L275.731 42.1689L275.73 42.1621L275.654 41.75C274.144 33.094 277.918 24.73 284.434 20.5645ZM478.813 210.551C448.262 210.551 424.488 235.897 424.488 266.06C424.488 296.222 448.262 321.568 478.813 321.568C509.365 321.568 533.14 296.222 533.14 266.06C533.14 235.897 509.365 210.551 478.813 210.551Z" fill="#9E2D2D" stroke="black" stroke-width="35"/>
</svg>
