<svg width="475" height="602" viewBox="0 0 475 602" fill="none" xmlns="http://www.w3.org/2000/svg">
<g clip-path="url(#clip0_1_31)">
<g filter="url(#filter0_d_1_31)">
<path d="M237.5 22.5C355.926 22.5 452 118.574 452 237V507.2C452 529.426 433.926 547.5 411.7 547.5C402.428 547.5 393.701 544.262 386.748 538.83L386.626 538.735L386.506 538.639L375.36 529.682C371.337 526.47 365.59 526.998 362.236 530.812L331.763 565.782C324.092 574.597 312.954 579.5 301.5 579.5C289.838 579.5 278.991 574.452 271.432 566.003L271.337 565.896L271.243 565.789L244.643 535.289L244.634 535.278L244.624 535.267C240.932 531.022 234.206 530.916 230.331 535.318L203.757 565.789L203.756 565.788C196.086 574.599 184.951 579.5 173.5 579.5C161.838 579.5 150.991 574.452 143.432 566.003L143.334 565.894L143.237 565.782L112.763 530.812C109.409 526.998 103.662 526.47 99.6396 529.683L99.6387 529.682L88.4941 538.639L88.374 538.735L88.252 538.83C81.2994 544.262 72.5721 547.5 63.2998 547.5C41.0736 547.5 23.0001 529.426 23 507.2V237C23 118.574 119.074 22.5 237.5 22.5ZM173.5 227.5C168.226 227.5 164 231.726 164 237C164 242.274 168.226 246.5 173.5 246.5C178.774 246.5 183 242.274 183 237C183 231.726 178.774 227.5 173.5 227.5ZM301.5 227.5C296.226 227.5 292 231.726 292 237C292 242.274 296.226 246.5 301.5 246.5C306.774 246.5 311 242.274 311 237C311 231.726 306.774 227.5 301.5 227.5Z" fill="#9E2D2D"/>
<path d="M237.5 22.5C355.926 22.5 452 118.574 452 237V507.2C452 529.426 433.926 547.5 411.7 547.5C402.428 547.5 393.701 544.262 386.748 538.83L386.626 538.735L386.506 538.639L375.36 529.682C371.337 526.47 365.59 526.998 362.236 530.812L331.763 565.782C324.092 574.597 312.954 579.5 301.5 579.5C289.838 579.5 278.991 574.452 271.432 566.003L271.337 565.896L271.243 565.789L244.643 535.289L244.634 535.278L244.624 535.267C240.932 531.022 234.206 530.916 230.331 535.318L203.757 565.789L203.756 565.788C196.086 574.599 184.951 579.5 173.5 579.5C161.838 579.5 150.991 574.452 143.432 566.003L143.334 565.894L143.237 565.782L112.763 530.812C109.409 526.998 103.662 526.47 99.6396 529.683L99.6387 529.682L88.4941 538.639L88.374 538.735L88.252 538.83C81.2994 544.262 72.5721 547.5 63.2998 547.5C41.0736 547.5 23.0001 529.426 23 507.2V237C23 118.574 119.074 22.5 237.5 22.5ZM173.5 227.5C168.226 227.5 164 231.726 164 237C164 242.274 168.226 246.5 173.5 246.5C178.774 246.5 183 242.274 183 237C183 231.726 178.774 227.5 173.5 227.5ZM301.5 227.5C296.226 227.5 292 231.726 292 237C292 242.274 296.226 246.5 301.5 246.5C306.774 246.5 311 242.274 311 237C311 231.726 306.774 227.5 301.5 227.5Z" stroke="black" stroke-width="45"/>
</g>
<circle cx="303.5" cy="234.5" r="32" fill="#8CDD1E"/>
<circle cx="303.5" cy="234.5" r="32" stroke="black" stroke-width="21"/>
<circle cx="303.5" cy="234.5" r="32" stroke="black" stroke-width="21"/>
<circle cx="170.5" cy="234.5" r="32" fill="#8CDD1E"/>
<circle cx="170.5" cy="234.5" r="32" stroke="black" stroke-width="21"/>
<circle cx="170.5" cy="234.5" r="32" stroke="black" stroke-width="21"/>
</g>
<defs>
<filter id="filter0_d_1_31" x="-23.4" y="-23.9" width="521.8" height="649.8" filterUnits="userSpaceOnUse" color-interpolation-filters="sRGB">
<feFlood flood-opacity="0" result="BackgroundImageFix"/>
<feColorMatrix in="SourceAlpha" type="matrix" values="0 0 0 0 0 0 0 0 0 0 0 0 0 0 0 0 0 0 127 0" result="hardAlpha"/>
<feOffset/>
<feGaussianBlur stdDeviation="11.95"/>
<feComposite in2="hardAlpha" operator="out"/>
<feColorMatrix type="matrix" values="0 0 0 0 0 0 0 0 0 0 0 0 0 0 0 0 0 0 0.74 0"/>
<feBlend mode="normal" in2="BackgroundImageFix" result="effect1_dropShadow_1_31"/>
<feBlend mode="normal" in="SourceGraphic" in2="effect1_dropShadow_1_31" result="shape"/>
</filter>
<clipPath id="clip0_1_31">
<rect width="474" height="602" fill="white" transform="translate(0.5)"/>
</clipPath>
</defs>
</svg>
