<svg width="660" height="618" viewBox="0 0 660 618" fill="none" xmlns="http://www.w3.org/2000/svg">
<g clip-path="url(#clip0_1_25)">
<g filter="url(#filter0_d_1_25)">
<path d="M114.2 22.5C146.31 22.5001 174.528 41.9344 186.55 70.5H582.4C616.556 70.5002 642.308 101.465 636.017 135.032L605.018 300.933L605.012 300.96C597.312 341.887 561.631 371.5 520 371.5H243.317L243.628 373.224L243.661 373.37C243.857 374.08 244.47 374.5 245.1 374.5H501C526.726 374.5 547.5 395.274 547.5 421C547.5 441.943 533.733 459.602 514.735 465.445C534.427 477.951 547.5 499.953 547.5 525C547.5 563.926 515.926 595.5 477 595.5C438.074 595.5 406.5 563.926 406.5 525C406.5 501.273 418.23 480.278 436.206 467.5H293.794C311.77 480.278 323.5 501.273 323.5 525C323.5 563.926 291.926 595.5 253 595.5C214.074 595.5 182.5 563.926 182.5 525C182.5 498.691 196.923 475.742 218.29 463.628C184.817 453.724 158.655 425.707 152.163 389.928L102.224 115.5H69C43.2736 115.5 22.5 94.7264 22.5 69C22.5 43.2736 43.2736 22.5 69 22.5H114.2Z" fill="#9E2D2D"/>
<path d="M114.2 22.5C146.31 22.5001 174.528 41.9344 186.55 70.5H582.4C616.556 70.5002 642.308 101.465 636.017 135.032L605.018 300.933L605.012 300.96C597.312 341.887 561.631 371.5 520 371.5H243.317L243.628 373.224L243.661 373.37C243.857 374.08 244.47 374.5 245.1 374.5H501C526.726 374.5 547.5 395.274 547.5 421C547.5 441.943 533.733 459.602 514.735 465.445C534.427 477.951 547.5 499.953 547.5 525C547.5 563.926 515.926 595.5 477 595.5C438.074 595.5 406.5 563.926 406.5 525C406.5 501.273 418.23 480.278 436.206 467.5H293.794C311.77 480.278 323.5 501.273 323.5 525C323.5 563.926 291.926 595.5 253 595.5C214.074 595.5 182.5 563.926 182.5 525C182.5 498.691 196.923 475.742 218.29 463.628C184.817 453.724 158.655 425.707 152.163 389.928L102.224 115.5H69C43.2736 115.5 22.5 94.7264 22.5 69C22.5 43.2736 43.2736 22.5 69 22.5H114.2Z" stroke="black" stroke-width="45"/>
</g>
</g>
<defs>
<filter id="filter0_d_1_25" x="-23.9" y="-23.9" width="707.274" height="665.8" filterUnits="userSpaceOnUse" color-interpolation-filters="sRGB">
<feFlood flood-opacity="0" result="BackgroundImageFix"/>
<feColorMatrix in="SourceAlpha" type="matrix" values="0 0 0 0 0 0 0 0 0 0 0 0 0 0 0 0 0 0 127 0" result="hardAlpha"/>
<feOffset/>
<feGaussianBlur stdDeviation="11.95"/>
<feComposite in2="hardAlpha" operator="out"/>
<feColorMatrix type="matrix" values="0 0 0 0 0 0 0 0 0 0 0 0 0 0 0 0 0 0 0.74 0"/>
<feBlend mode="normal" in2="BackgroundImageFix" result="effect1_dropShadow_1_25"/>
<feBlend mode="normal" in="SourceGraphic" in2="effect1_dropShadow_1_25" result="shape"/>
</filter>
<clipPath id="clip0_1_25">
<rect width="660" height="618" fill="white"/>
</clipPath>
</defs>
</svg>
