<svg width="475" height="634" viewBox="0 0 475 634" fill="none" xmlns="http://www.w3.org/2000/svg">
<g clip-path="url(#clip0_1_19)">
<g filter="url(#filter0_d_1_19)">
<path d="M237.5 22.5C355.926 22.5 452 118.574 452 237V370.5C452 393.533 442.786 415.399 426.776 431.543L426.743 431.576L426.71 431.61L397.336 460.983L432.194 495.774L432.21 495.79C444.983 508.563 452 525.808 452 543.7C452 581.176 421.596 611.35 384.391 611.5H90.7998C53.3088 611.5 23.0997 581.062 23.0996 543.7C23.0996 525.695 30.2934 508.536 42.7959 495.885L42.8428 495.837L87 451.68V426.4C87 401.09 98.0989 377.207 117.078 360.785L117.122 360.747L117.167 360.709L123.981 354.874C120.487 355.287 116.954 355.5 113.4 355.5C63.474 355.5 23 315.026 23 265.1V256.4C23 228.199 33.1406 200.916 51.5098 179.465L51.5127 179.462L119 100.68V77C119 46.8736 143.374 22.5 173.5 22.5H237.5ZM205.5 171.5C204.626 171.5 204 172.126 204 173C204 173.874 204.626 174.5 205.5 174.5C206.374 174.5 207 173.874 207 173C207 172.126 206.374 171.5 205.5 171.5Z" fill="#9E2D2D"/>
<path d="M237.5 22.5C355.926 22.5 452 118.574 452 237V370.5C452 393.533 442.786 415.399 426.776 431.543L426.743 431.576L426.71 431.61L397.336 460.983L432.194 495.774L432.21 495.79C444.983 508.563 452 525.808 452 543.7C452 581.176 421.596 611.35 384.391 611.5H90.7998C53.3088 611.5 23.0997 581.062 23.0996 543.7C23.0996 525.695 30.2934 508.536 42.7959 495.885L42.8428 495.837L87 451.68V426.4C87 401.09 98.0989 377.207 117.078 360.785L117.122 360.747L117.167 360.709L123.981 354.874C120.487 355.287 116.954 355.5 113.4 355.5C63.474 355.5 23 315.026 23 265.1V256.4C23 228.199 33.1406 200.916 51.5098 179.465L51.5127 179.462L119 100.68V77C119 46.8736 143.374 22.5 173.5 22.5H237.5ZM205.5 171.5C204.626 171.5 204 172.126 204 173C204 173.874 204.626 174.5 205.5 174.5C206.374 174.5 207 173.874 207 173C207 172.126 206.374 171.5 205.5 171.5Z" stroke="black" stroke-width="45"/>
</g>
<circle cx="208.5" cy="179.5" r="27" fill="#8CDD1E"/>
<circle cx="208.5" cy="179.5" r="27" stroke="black" stroke-width="21"/>
<circle cx="208.5" cy="179.5" r="27" stroke="black" stroke-width="21"/>
</g>
<defs>
<filter id="filter0_d_1_19" x="-23.4" y="-23.9" width="521.8" height="681.8" filterUnits="userSpaceOnUse" color-interpolation-filters="sRGB">
<feFlood flood-opacity="0" result="BackgroundImageFix"/>
<feColorMatrix in="SourceAlpha" type="matrix" values="0 0 0 0 0 0 0 0 0 0 0 0 0 0 0 0 0 0 127 0" result="hardAlpha"/>
<feOffset/>
<feGaussianBlur stdDeviation="11.95"/>
<feComposite in2="hardAlpha" operator="out"/>
<feColorMatrix type="matrix" values="0 0 0 0 0 0 0 0 0 0 0 0 0 0 0 0 0 0 0.74 0"/>
<feBlend mode="normal" in2="BackgroundImageFix" result="effect1_dropShadow_1_19"/>
<feBlend mode="normal" in="SourceGraphic" in2="effect1_dropShadow_1_19" result="shape"/>
</filter>
<clipPath id="clip0_1_19">
<rect width="474" height="634" fill="white" transform="translate(0.5)"/>
</clipPath>
</defs>
</svg>
