<svg width="603" height="570" viewBox="0 0 603 570" fill="none" xmlns="http://www.w3.org/2000/svg">
<g clip-path="url(#clip0_1_23)">
<g filter="url(#filter0_d_1_23)">
<path d="M501.276 35.4141C513.422 23.838 530.977 19.5588 547.29 24.5615L548.065 24.8066L548.173 24.8418L548.28 24.8779C567.227 31.258 580 49.0341 580 69.001V255.901C580 399.767 461.586 515.501 318.7 515.501C244.529 515.501 179.119 474.771 144.706 414.204C126.647 438.429 116 468.435 116 501.001C116 526.727 95.2264 547.501 69.5 547.501C43.7736 547.501 23 526.727 23 501.001C23.0001 418.26 65.2268 345.396 129.074 302.61L129.085 302.604L129.095 302.597C168.12 276.506 214.577 262.501 261.5 262.501H341.5C342.374 262.501 343 261.875 343 261.001C343 260.128 342.373 259.501 341.5 259.501H261.5C225.158 259.501 190.795 267.551 160.002 281.896L112.655 303.954L129.151 254.396C155.41 175.506 229.696 118.501 317.5 118.501C378.615 118.501 423.75 98.2294 453.732 78.2715C471.024 66.7421 481.487 57.1156 495.64 41.1006L496.101 40.5791L496.593 40.0879L500.893 35.7891L501.082 35.5996L501.276 35.4141Z" fill="#9E2D2D"/>
<path d="M501.276 35.4141C513.422 23.838 530.977 19.5588 547.29 24.5615L548.065 24.8066L548.173 24.8418L548.28 24.8779C567.227 31.258 580 49.0341 580 69.001V255.901C580 399.767 461.586 515.501 318.7 515.501C244.529 515.501 179.119 474.771 144.706 414.204C126.647 438.429 116 468.435 116 501.001C116 526.727 95.2264 547.501 69.5 547.501C43.7736 547.501 23 526.727 23 501.001C23.0001 418.26 65.2268 345.396 129.074 302.61L129.085 302.604L129.095 302.597C168.12 276.506 214.577 262.501 261.5 262.501H341.5C342.374 262.501 343 261.875 343 261.001C343 260.128 342.373 259.501 341.5 259.501H261.5C225.158 259.501 190.795 267.551 160.002 281.896L112.655 303.954L129.151 254.396C155.41 175.506 229.696 118.501 317.5 118.501C378.615 118.501 423.75 98.2294 453.732 78.2715C471.024 66.7421 481.487 57.1156 495.64 41.1006L496.101 40.5791L496.593 40.0879L500.893 35.7891L501.082 35.5996L501.276 35.4141Z" stroke="black" stroke-width="45"/>
</g>
</g>
<defs>
<filter id="filter0_d_1_23" x="-23.4" y="-23.9026" width="649.8" height="617.804" filterUnits="userSpaceOnUse" color-interpolation-filters="sRGB">
<feFlood flood-opacity="0" result="BackgroundImageFix"/>
<feColorMatrix in="SourceAlpha" type="matrix" values="0 0 0 0 0 0 0 0 0 0 0 0 0 0 0 0 0 0 127 0" result="hardAlpha"/>
<feOffset/>
<feGaussianBlur stdDeviation="11.95"/>
<feComposite in2="hardAlpha" operator="out"/>
<feColorMatrix type="matrix" values="0 0 0 0 0 0 0 0 0 0 0 0 0 0 0 0 0 0 0.74 0"/>
<feBlend mode="normal" in2="BackgroundImageFix" result="effect1_dropShadow_1_23"/>
<feBlend mode="normal" in="SourceGraphic" in2="effect1_dropShadow_1_23" result="shape"/>
</filter>
<clipPath id="clip0_1_23">
<rect width="602" height="570" fill="white" transform="translate(0.5)"/>
</clipPath>
</defs>
</svg>
