<svg width="728" height="602" viewBox="0 0 728 602" fill="none" xmlns="http://www.w3.org/2000/svg">
<g clip-path="url(#clip0_1_11)">
<g filter="url(#filter0_d_1_11)">
<path d="M501.489 22.5C531.839 22.5001 559.289 34.8064 579.238 54.5H619.489C659.212 54.5002 693.822 81.5273 703.422 120.061H703.42C708.608 140.646 696.156 161.605 675.438 166.729H675.439L611.989 182.572V237C611.989 326.462 557.239 403.02 479.643 435.21L512.594 515.233L512.833 515.814L513.04 516.408L513.84 518.708L514.032 519.26L514.195 519.821C520.72 542.275 509.645 566.755 487.201 575.928C465.076 584.97 439.689 575.824 428.531 554.879L428.198 554.254L427.905 553.61L426.905 551.41L426.737 551.041L426.583 550.665L420.013 534.706C419.313 552.278 408.722 568.767 391.201 575.928C369.076 584.97 343.689 575.824 332.531 554.879L332.198 554.254L331.905 553.61L330.905 551.41L330.739 551.044L330.586 550.672L289.725 451.5H180.989L110.188 504.6L110.169 504.615L110.148 504.631C86.0968 522.585 51.9709 517.923 33.8584 493.659C15.8408 469.522 20.7627 435.462 44.7686 417.415L44.7783 417.407L44.7891 417.4L390.989 157.75V133C390.989 71.9736 440.463 22.5 501.489 22.5ZM501.489 131.5C500.616 131.5 499.989 132.126 499.989 133C499.989 133.874 500.616 134.5 501.489 134.5C502.363 134.5 502.989 133.873 502.989 133C502.989 132.127 502.363 131.5 501.489 131.5Z" fill="#9E2D2D"/>
<path d="M501.489 22.5C531.839 22.5001 559.289 34.8064 579.238 54.5H619.489C659.212 54.5002 693.822 81.5273 703.422 120.061H703.42C708.608 140.646 696.156 161.605 675.438 166.729H675.439L611.989 182.572V237C611.989 326.462 557.239 403.02 479.643 435.21L512.594 515.233L512.833 515.814L513.04 516.408L513.84 518.708L514.032 519.26L514.195 519.821C520.72 542.275 509.645 566.755 487.201 575.928C465.076 584.97 439.689 575.824 428.531 554.879L428.198 554.254L427.905 553.61L426.905 551.41L426.737 551.041L426.583 550.665L420.013 534.706C419.313 552.278 408.722 568.767 391.201 575.928C369.076 584.97 343.689 575.824 332.531 554.879L332.198 554.254L331.905 553.61L330.905 551.41L330.739 551.044L330.586 550.672L289.725 451.5H180.989L110.188 504.6L110.169 504.615L110.148 504.631C86.0968 522.585 51.9709 517.923 33.8584 493.659C15.8408 469.522 20.7627 435.462 44.7686 417.415L44.7783 417.407L44.7891 417.4L390.989 157.75V133C390.989 71.9736 440.463 22.5 501.489 22.5ZM501.489 131.5C500.616 131.5 499.989 132.126 499.989 133C499.989 133.874 500.616 134.5 501.489 134.5C502.363 134.5 502.989 133.873 502.989 133C502.989 132.127 502.363 131.5 501.489 131.5Z" stroke="black" stroke-width="45"/>
</g>
<path d="M419 531L389 445" stroke="black" stroke-width="44" stroke-linecap="round"/>
<circle cx="503.5" cy="137.5" r="27" fill="#8CDD1E"/>
<circle cx="503.5" cy="137.5" r="27" stroke="black" stroke-width="21"/>
<circle cx="503.5" cy="137.5" r="27" stroke="black" stroke-width="21"/>
</g>
<defs>
<filter id="filter0_d_1_11" x="-23.4028" y="-23.9" width="779.518" height="649.706" filterUnits="userSpaceOnUse" color-interpolation-filters="sRGB">
<feFlood flood-opacity="0" result="BackgroundImageFix"/>
<feColorMatrix in="SourceAlpha" type="matrix" values="0 0 0 0 0 0 0 0 0 0 0 0 0 0 0 0 0 0 127 0" result="hardAlpha"/>
<feOffset/>
<feGaussianBlur stdDeviation="11.95"/>
<feComposite in2="hardAlpha" operator="out"/>
<feColorMatrix type="matrix" values="0 0 0 0 0 0 0 0 0 0 0 0 0 0 0 0 0 0 0.74 0"/>
<feBlend mode="normal" in2="BackgroundImageFix" result="effect1_dropShadow_1_11"/>
<feBlend mode="normal" in="SourceGraphic" in2="effect1_dropShadow_1_11" result="shape"/>
</filter>
<clipPath id="clip0_1_11">
<rect width="727" height="602" fill="white" transform="translate(0.5)"/>
</clipPath>
</defs>
</svg>
