<svg width="645" height="633" viewBox="0 0 645 633" fill="none" xmlns="http://www.w3.org/2000/svg">
<rect x="141.619" y="132.946" width="349.54" height="452.712" fill="#8CDD1E"/>
<path d="M320.998 19.1055C354.452 19.2232 380.049 48.211 387.495 83.7568H388.764L388.802 84.5225L397.37 85.0977C459.788 89.2828 514.816 98.6071 554.731 111.543C574.581 117.976 591.675 125.61 604.162 134.623C616.208 143.317 627.342 155.853 627.342 172.494C627.342 188.238 617.339 200.313 606.23 208.823C594.824 217.562 579.248 224.968 561.233 231.251C528.995 242.494 485.81 251.195 436.36 256.498C436.915 260.167 437.411 263.875 437.852 267.607L448.265 268.866C497.515 274.819 540.118 284.247 570.885 296.336C586.191 302.35 599.523 309.388 609.328 317.692C619.016 325.897 627.34 337.209 627.34 351.53C627.34 368.997 615.115 381.94 602.176 390.796C588.644 400.057 570.078 407.893 548.457 414.444C509.46 426.262 457.331 434.837 398.463 438.846L399.737 438.935C461.491 443.233 515.86 452.568 555.282 465.464C574.887 471.877 591.777 479.482 604.119 488.461C616.043 497.135 627.017 509.613 627.018 526.137C627.018 545.819 611.63 559.806 596.111 569.089C579.511 579.018 556.621 587.363 529.832 594.141C475.994 607.761 402.525 616 322.01 616C241.495 616 168.025 607.761 114.187 594.141C87.3969 587.363 64.5068 579.017 47.9062 569.088C32.387 559.805 17 545.818 17 526.136C17.0001 509.561 28.0399 497.059 40.0166 488.374C52.4203 479.38 69.3973 471.762 89.1064 465.341C128.739 452.429 183.392 443.1 245.438 438.851L245.871 438.82C187.186 434.803 135.219 426.246 96.3105 414.465C74.6704 407.912 56.089 400.074 42.5459 390.811C29.597 381.953 17.3591 369.006 17.3604 351.529L17.3672 350.863C17.6205 336.917 25.7678 325.862 35.2471 317.798C44.9875 309.512 58.2311 302.489 73.4287 296.486C103.976 284.421 146.28 274.996 195.205 269.013L206.181 267.67C206.733 263.902 207.341 260.161 208.008 256.46C158.733 251.158 115.699 242.481 83.541 231.276C65.5049 224.992 49.9121 217.582 38.4932 208.84C27.3739 200.327 17.3581 188.247 17.3594 172.491C17.3607 155.987 28.319 143.523 40.2197 134.857C52.5385 125.888 69.396 118.289 88.959 111.879C128.298 98.9895 182.549 89.6459 244.163 85.3232L253.917 84.6387C260.646 51.025 283.47 23.0457 313.513 19.1416L319.821 18.3223L320.998 19.1055ZM249.194 485.203C211.56 488.903 180.287 495.309 158.907 503.066C148.126 506.978 140.826 510.892 136.545 514.283C135.181 515.364 134.344 516.205 133.84 516.796C134.725 517.864 136.736 519.811 141.175 522.466C149.559 527.48 162.822 532.594 180.706 537.118C216.215 546.102 266.179 551.844 322.003 551.844C377.828 551.844 427.792 546.103 463.301 537.119C481.185 532.595 494.447 527.482 502.831 522.467C507.27 519.812 509.281 517.864 510.166 516.796C509.669 516.214 508.852 515.39 507.526 514.334C503.31 510.975 496.106 507.086 485.442 503.19C464.296 495.465 433.34 489.063 396.035 485.323L390.075 484.726L387.432 524.813L386.614 537.201L374.565 540.193C361.368 543.471 343.034 545.613 324.612 545.735H324.611C305.681 545.861 286.106 543.866 271.138 540.094L259.25 537.098L258.339 524.872L255.338 484.599L249.194 485.203ZM397.411 373.506C397.813 373.465 398.214 373.422 398.614 373.38H397.42L397.411 373.506ZM247.056 373.491L247.048 373.382H246.009C246.357 373.418 246.706 373.455 247.056 373.491ZM441.554 317.299L441.159 317.232C441.533 330.63 441.6 343.864 441.61 356.366L441.618 367.185C456.415 364.384 469.452 361.104 480.337 357.481C492.76 353.347 501.41 349.082 506.605 345.253C508.566 343.808 509.67 342.709 510.281 341.984C510.158 341.842 510.017 341.685 509.853 341.513C507.987 339.562 504.395 336.886 498.337 333.876C486.273 327.882 467.809 322.202 443.988 317.653L441.547 317.187L441.554 317.299ZM199.14 317.905C175.593 322.46 157.343 328.11 145.423 334.057C139.437 337.043 135.897 339.689 134.065 341.608C133.937 341.743 133.821 341.869 133.719 341.984C134.344 342.71 135.454 343.798 137.396 345.219C142.645 349.061 151.37 353.333 163.874 357.471C174.253 360.906 186.568 364.031 200.475 366.733L200.56 356.245C200.66 343.794 200.942 330.688 201.592 317.431L199.14 317.905ZM247.385 131.987C210.224 135.686 179.358 141.984 158.263 149.609C147.623 153.455 140.443 157.296 136.247 160.613C134.999 161.6 134.208 162.38 133.713 162.941C134.171 163.47 134.886 164.191 135.99 165.097C139.892 168.299 146.62 172.065 156.682 175.888C174.507 182.66 199.804 188.501 230.329 192.504C231.443 190.741 232.603 189.024 233.812 187.363H233.813C242.805 175.017 253.898 165.855 268.487 161.248C262.568 152.542 257.94 142.364 255.087 131.221L247.385 131.987ZM386.589 130.97C383.902 141.659 379.595 151.503 374.075 160.003C389.988 164.271 401.782 173.315 411.21 185.958C412.733 187.999 414.173 190.127 415.534 192.326C445.542 188.304 470.332 182.494 487.784 175.782C497.669 171.981 504.249 168.248 508.052 165.088C509.142 164.182 509.841 163.462 510.285 162.94C509.779 162.354 508.944 161.522 507.586 160.456C503.283 157.077 495.942 153.185 485.097 149.307C463.59 141.616 432.141 135.312 394.304 131.706L386.589 130.97Z" fill="#9E2D2D" stroke="black" stroke-width="34"/>
</svg>
