<svg width="667" height="603" viewBox="0 0 667 603" fill="none" xmlns="http://www.w3.org/2000/svg">
<g clip-path="url(#clip0_1_2)">
<g filter="url(#filter0_d_1_2)">
<path d="M605.5 22.5C626.726 22.5 644 39.7736 644 61C644 70.5473 640.504 79.2934 634.727 86.0293C640.653 97.7464 644 110.998 644 125V200.5C644 231.792 625.006 259.871 595.956 271.491L595.942 271.496L595.929 271.502C567.979 282.639 537.07 276.2 516 256.972V285.188L515.997 285.375C515.455 317.912 503.337 347.121 484 369.516V525C484 555.126 459.626 579.5 429.5 579.5H397.5C367.374 579.5 343 555.126 343 525V524.983L343.086 409.482L289.389 394.14C285.367 410.407 276.974 425.446 264.91 437.51L254.266 448.153L274.145 507.885C285.923 543.221 259.488 579.599 222.4 579.6H188.7C165.195 579.6 144.436 564.589 136.971 542.364L136.959 542.327L119.461 489.935C106.747 451.91 111.688 410.953 131.415 377.477C136.199 369.355 135.28 362.771 133.302 359.815L133.283 359.788L133.266 359.761L116 333.801V357C116 382.726 95.2264 403.5 69.5 403.5C43.7736 403.5 23 382.726 23 357V301C23 248.607 59.4713 204.694 108.5 193.37C128.071 167.34 159.216 150.5 194.3 150.5H344.673C355.531 78.0487 418.02 22.5 493.5 22.5H605.5ZM541.5 118.5C537.874 118.5 535 121.374 535 125C535 128.626 537.874 131.5 541.5 131.5C545.126 131.5 548 128.626 548 125C548 121.374 545.126 118.5 541.5 118.5Z" fill="#9E2D2D"/>
<path d="M605.5 22.5C626.726 22.5 644 39.7736 644 61C644 70.5473 640.504 79.2934 634.727 86.0293C640.653 97.7464 644 110.998 644 125V200.5C644 231.792 625.006 259.871 595.956 271.491L595.942 271.496L595.929 271.502C567.979 282.639 537.07 276.2 516 256.972V285.188L515.997 285.375C515.455 317.912 503.337 347.121 484 369.516V525C484 555.126 459.626 579.5 429.5 579.5H397.5C367.374 579.5 343 555.126 343 525V524.983L343.086 409.482L289.389 394.14C285.367 410.407 276.974 425.446 264.91 437.51L254.266 448.153L274.145 507.885C285.923 543.221 259.488 579.599 222.4 579.6H188.7C165.195 579.6 144.436 564.589 136.971 542.364L136.959 542.327L119.461 489.935C106.747 451.91 111.688 410.953 131.415 377.477C136.199 369.355 135.28 362.771 133.302 359.815L133.283 359.788L133.266 359.761L116 333.801V357C116 382.726 95.2264 403.5 69.5 403.5C43.7736 403.5 23 382.726 23 357V301C23 248.607 59.4713 204.694 108.5 193.37C128.071 167.34 159.216 150.5 194.3 150.5H344.673C355.531 78.0487 418.02 22.5 493.5 22.5H605.5ZM541.5 118.5C537.874 118.5 535 121.374 535 125C535 128.626 537.874 131.5 541.5 131.5C545.126 131.5 548 128.626 548 125C548 121.374 545.126 118.5 541.5 118.5Z" stroke="black" stroke-width="45"/>
</g>
<circle cx="545.5" cy="129.5" r="27" fill="#8CDD1E"/>
<circle cx="545.5" cy="129.5" r="27" stroke="black" stroke-width="21"/>
<circle cx="545.5" cy="129.5" r="27" stroke="black" stroke-width="21"/>
</g>
<defs>
<filter id="filter0_d_1_2" x="-23.4" y="-23.9" width="713.8" height="649.9" filterUnits="userSpaceOnUse" color-interpolation-filters="sRGB">
<feFlood flood-opacity="0" result="BackgroundImageFix"/>
<feColorMatrix in="SourceAlpha" type="matrix" values="0 0 0 0 0 0 0 0 0 0 0 0 0 0 0 0 0 0 127 0" result="hardAlpha"/>
<feOffset/>
<feGaussianBlur stdDeviation="11.95"/>
<feComposite in2="hardAlpha" operator="out"/>
<feColorMatrix type="matrix" values="0 0 0 0 0 0 0 0 0 0 0 0 0 0 0 0 0 0 0.74 0"/>
<feBlend mode="normal" in2="BackgroundImageFix" result="effect1_dropShadow_1_2"/>
<feBlend mode="normal" in="SourceGraphic" in2="effect1_dropShadow_1_2" result="shape"/>
</filter>
<clipPath id="clip0_1_2">
<rect width="666" height="603" fill="white" transform="translate(0.5)"/>
</clipPath>
</defs>
</svg>
